<svg viewBox="0 0 24 24" fill="none" xmlns="http://www.w3.org/2000/svg" id="Lock-Keyhole--Streamline-Solar-Ar" height="24" width="24">
  <desc>
    Lock Keyhole Streamline Icon: https://streamlinehq.com
  </desc>
  <path d="M2 16c0 -2.8284 0 -4.2426 0.87868 -5.1213C3.75736 10 5.17157 10 8 10h8c2.8284 0 4.2426 0 5.1213 0.8787C22 11.7574 22 13.1716 22 16s0 4.2426 -0.8787 5.1213C20.2426 22 18.8284 22 16 22H8c-2.82843 0 -4.24264 0 -5.12132 -0.8787C2 20.2426 2 18.8284 2 16Z" stroke="#000000" stroke-width="1.5"></path>
  <path stroke="#000000" d="M10 16a2 2 0 1 0 4 0 2 2 0 1 0 -4 0" stroke-width="1.5"></path>
  <path d="M6 10V8c0 -3.31371 2.68629 -6 6 -6 3.3137 0 6 2.68629 6 6v2" stroke="#000000" stroke-linecap="round" stroke-width="1.5"></path>
</svg>